<svg width="100" height="46" viewBox="0 0 100 46" fill="none" xmlns="http://www.w3.org/2000/svg">
<path fill-rule="evenodd" clip-rule="evenodd" d="M23.1003 0.09059C22.7597 0.22649 22.2919 0.611808 22.2919 0.756481C22.2919 0.827833 22.259 0.886203 22.2188 0.886203C22.1306 0.886203 21.7547 1.53768 21.7547 1.69059C21.7547 1.7503 21.6963 1.92613 21.6251 2.08128C21.5537 2.23643 21.4802 2.48423 21.4617 2.63195L21.4279 2.90053L21.314 2.60957C21.0486 1.93204 20.7837 2.59247 20.9532 3.50903C21.0039 3.78298 21.165 4.23141 21.3114 4.50572C21.5178 4.89265 21.5472 5.00438 21.4423 5.00438C21.368 5.00438 21.3077 5.05478 21.3086 5.11628C21.3098 5.2136 21.7969 5.70867 22.2362 6.05917C22.419 6.20509 23.1497 6.5281 23.5004 6.61816C23.7075 6.67125 23.7242 6.68916 23.5729 6.69623C23.3494 6.70661 23.2601 6.80491 23.3497 6.94171C23.4397 7.07922 24.8801 7.4238 25.7234 7.50948C26.4714 7.58558 27.7099 7.50097 28.3996 7.32685C28.6102 7.27367 28.8832 7.20876 29.0063 7.18262C29.3514 7.1093 30.396 6.80903 31.3126 6.5196C32.2555 6.22183 32.5063 6.19059 32.0501 6.42783C31.8778 6.51736 31.6348 6.64672 31.5103 6.71521C31.1871 6.89274 29.9608 7.90724 29.7101 8.20456C29.5938 8.34234 29.399 8.5247 29.2773 8.60984C29.1556 8.69489 29.0923 8.76445 29.1368 8.76445C29.1812 8.76445 29.0862 8.88173 28.9257 9.02506C28.7652 9.1683 28.6322 9.31942 28.6302 9.36078C28.6281 9.40205 28.4136 9.65747 28.1534 9.92828C27.8933 10.1991 27.5309 10.5918 27.3482 10.8012C27.1654 11.0105 26.9785 11.1816 26.9329 11.1816C26.8872 11.1816 26.7412 11.2824 26.6085 11.4055C26.4757 11.5285 26.3163 11.6293 26.2543 11.6293C26.1922 11.6293 26.1414 11.6699 26.1414 11.7195C26.1414 11.7692 25.9803 11.8742 25.7833 11.9531C25.5864 12.0319 25.4252 12.1275 25.4252 12.1656C25.4252 12.3243 23.8207 12.7353 21.8993 13.0686C21.2221 13.186 21.1924 13.2074 20.5467 14.0471C20.3008 14.3668 19.9987 14.7308 19.8753 14.856C19.7518 14.9813 19.5956 15.1892 19.5282 15.3179C19.4607 15.4466 19.2898 15.6867 19.1484 15.8512C18.8262 16.226 18.376 16.7582 18.0842 17.1092C17.7636 17.4948 16.0152 19.2451 15.7048 19.4912C15.5609 19.6054 15.1739 19.8257 14.8449 19.9808C14.2606 20.2564 14.2423 20.2755 14.057 20.8029C13.9527 21.0998 13.8527 21.4032 13.8348 21.4771C13.8168 21.5509 13.6807 21.8947 13.5321 22.241C13.3836 22.5873 13.2125 23.0707 13.1519 23.3153C13.0913 23.5599 13.0021 23.7861 12.9536 23.8181C12.9052 23.85 12.8905 23.9411 12.9209 24.0205C12.9514 24.0998 12.9852 24.1945 12.9962 24.2309C13.0071 24.2673 13.0491 24.3374 13.0894 24.3867C13.2866 24.6268 13.7869 25.3204 13.7869 25.3534C13.7869 25.387 11.611 25.5344 11.2802 25.5232C10.7864 25.5065 8.91764 25.7355 8.79239 25.8281C8.51853 26.0305 8.78326 26.1194 9.93733 26.2129C15.9663 26.7012 26.9261 26.8892 49.4628 26.8907C63.9922 26.8917 78.4635 26.771 81.1101 26.6268C81.5286 26.604 82.6365 26.5619 83.5721 26.533C86.4622 26.4441 90.0875 26.2063 90.5327 26.0765C90.8027 25.9978 90.7038 25.7851 90.3534 25.6907C90.054 25.6101 87.4187 25.4209 86.5488 25.4175C86.2261 25.4163 86.2131 25.4042 86.2131 25.1081C86.2131 24.9387 86.1728 24.7752 86.1235 24.7448C86.0743 24.7143 86.0337 24.6213 86.0331 24.538C86.0314 24.2354 85.5856 23.438 85.1658 22.9867C84.456 22.2234 84.2603 22.1705 81.8711 22.0946C80.7386 22.0586 79.6911 21.9878 79.5434 21.9371C79.3957 21.8866 78.9324 21.7796 78.5139 21.6995C77.6177 21.5278 77.3075 21.4366 74.709 20.5806C71.577 19.5488 70.3503 18.8322 69.4771 17.5245C69.1704 17.0653 68.6661 15.7607 68.6661 15.4267C68.6661 15.2145 67.7159 14.9036 66.7657 14.8048C66.1729 14.7432 66.1656 14.7393 66.2973 14.551C66.6081 14.107 67.5762 13.2088 68.0618 12.9138C68.3498 12.7388 68.5707 12.5519 68.5529 12.4983C68.5197 12.3988 67.7243 12.3961 67.1665 12.4936C67.0064 12.5216 66.8756 12.5241 66.8756 12.4992C66.8756 12.4249 68.1505 11.4815 68.4646 11.3234C68.9215 11.0935 68.8014 11.2866 68.3022 11.5845C67.5674 12.0231 67.5268 12.0602 67.6749 12.1576C67.7454 12.2038 68.0274 12.2229 68.3016 12.2001C68.5759 12.1773 69.0219 12.1854 69.2927 12.2181L69.7851 12.2776L69.4718 12.4132C69.2995 12.4879 69.0577 12.5935 68.9346 12.6478C68.2593 12.9461 66.8756 14.1263 66.8756 14.4041C66.8756 14.5125 67.0577 14.5688 67.6848 14.6542C68.1823 14.722 68.7896 14.8836 69.2612 15.0738C70.0081 15.3749 70.9042 15.8834 70.9042 16.0061C70.9042 16.0396 71.0278 16.14 71.179 16.2293C71.3301 16.3185 71.4368 16.4085 71.4161 16.4292C71.3954 16.4499 71.5101 16.6064 71.6711 16.7771C71.832 16.9477 71.9903 17.2089 72.0229 17.3574C72.0556 17.5059 72.1139 17.6275 72.1525 17.6275C72.256 17.6275 72.4622 18.6754 72.4635 19.2078L72.4645 19.6691L72.781 19.6219C73.2724 19.5487 74.1118 19.2551 74.7805 18.9226C75.2726 18.6779 75.3987 18.6449 75.4391 18.7504C75.496 18.8986 75.7558 18.9209 75.986 18.7974C76.0715 18.7515 76.4123 18.6506 76.7433 18.5731C77.6085 18.3708 78.9406 17.6609 80.1081 16.7799C80.6647 16.3598 81.1812 16.016 81.2557 16.016C81.6148 16.016 83.7959 14.0929 83.7959 13.7764C83.7959 13.5106 83.388 12.8751 82.5696 11.8661C82.1363 11.3316 81.7576 10.8482 81.7283 10.7918C81.699 10.7354 81.6286 10.5992 81.5716 10.4891C81.5148 10.379 81.4654 10.2178 81.462 10.131C81.4586 10.0441 81.225 9.7871 80.9429 9.55988C80.4161 9.13553 78.3075 7.69014 78.2152 7.69014C78.1869 7.69014 78.0299 7.59945 77.8664 7.48871C77.3902 7.16606 74.9158 5.96821 74.0932 5.66212C73.8902 5.58665 73.6437 5.48844 73.5452 5.44395C73.2241 5.29892 72.1311 4.91288 71.2623 4.63777C70.7945 4.48961 70.3312 4.33517 70.2328 4.29462C69.6774 4.06606 69.5406 4.0196 69.4228 4.0196C69.1933 4.0196 69.2816 4.26866 69.7641 4.98128C70.6334 6.26516 71.2728 6.9982 71.6696 7.16579C71.8149 7.22712 72.1553 7.32479 72.4261 7.38271L72.9185 7.48817L72.3062 7.49963L71.6939 7.51109L70.8666 6.68298C70.4115 6.22747 69.8924 5.63329 69.7127 5.36248C69.5331 5.09166 69.1738 4.70518 68.9142 4.50357C68.0644 3.84368 65.6544 2.67671 65.1414 2.67671C65.0611 2.67671 64.9955 2.63643 64.9955 2.58719C64.9955 2.53795 64.9149 2.49766 64.8165 2.49766C64.718 2.49766 64.6374 2.54914 64.6374 2.61208C64.6374 2.67501 64.718 2.79542 64.8165 2.87976C65.1538 3.16857 64.9953 3.19426 64.3912 2.94851C63.5017 2.58674 61.9732 2.08683 61.2131 1.90912C60.8688 1.82864 60.8895 2.03258 61.2565 2.3341C61.4166 2.4657 61.5201 2.60089 61.4866 2.63446C61.453 2.66812 61.1723 2.63132 60.8629 2.55281L60.3004 2.41002L57.9703 2.98504C54.8256 3.76105 54.2524 3.89381 53.3124 4.06355C52.8693 4.14368 52.3657 4.24645 52.1934 4.29211C51.6162 4.44475 50.0117 4.64941 48.7492 4.73132C46.5791 4.87215 45.065 4.72219 41.5846 4.02157C36.9915 3.09695 37.1421 3.11727 35.207 3.15908C34.2339 3.18021 33.3169 3.21995 33.1692 3.24753C33.0215 3.27519 32.6388 3.33786 32.3187 3.38701C31.9987 3.43607 31.4548 3.54117 31.1101 3.62049C29.1862 4.06355 28.3029 4.19748 27.2992 4.19802C25.5762 4.19909 24.9479 3.89793 24.9896 3.09113C25.0014 2.8632 25.0439 2.67671 25.0839 2.67671C25.1239 2.67671 25.1567 2.62237 25.1567 2.55585C25.1567 2.48943 25.2768 2.25782 25.4236 2.04108C25.6247 1.74431 25.691 1.54368 25.6922 1.22756C25.6936 0.858182 25.6536 0.76973 25.3581 0.488531C25.1735 0.312882 24.8814 0.129265 24.709 0.0805632C24.3136 -0.0312542 23.391 -0.0255246 23.1003 0.09059ZM61.1907 4.02174C61.5354 4.11199 62.0591 4.23338 62.3545 4.29149C62.65 4.34959 62.932 4.42918 62.9812 4.46839C63.0304 4.50751 63.1714 4.55809 63.2945 4.58074L63.5184 4.62192L63.2945 4.63195C63.1714 4.6375 62.9096 4.59936 62.7126 4.54717C62.2885 4.43482 61.7964 4.34055 60.862 4.19247C60.3318 4.1085 60.087 4.10778 59.7877 4.18925C59.5746 4.24726 58.9167 4.41226 58.3259 4.55585C57.735 4.69945 57.0703 4.86346 56.8487 4.92022C54.3276 5.56642 49.8628 6.18522 47.9298 6.15639C47.2855 6.14672 47.4483 6.12228 48.7914 6.02667C51.1433 5.85943 52.6276 5.63311 55.0134 5.07806C56.7892 4.6649 58.8946 4.1067 59.4897 3.89122C59.8889 3.74672 60.2457 3.77412 61.1907 4.02174ZM63.8074 4.70035C63.7777 4.73007 63.7004 4.73329 63.6359 4.70742C63.5645 4.67886 63.5857 4.65764 63.69 4.65335C63.7843 4.6495 63.8372 4.67063 63.8074 4.70035ZM73.3013 7.75523C73.118 7.77447 72.7957 7.77474 72.5851 7.75576C72.3746 7.73687 72.5246 7.72112 72.9185 7.72085C73.3124 7.72049 73.4847 7.73598 73.3013 7.75523ZM79.395 9.81637C79.6174 10.0257 79.7619 10.1968 79.7161 10.1966C79.5139 10.1959 78.0454 9.91413 77.8641 9.84126C77.7089 9.77886 77.78 9.75926 78.1782 9.75487C78.7368 9.74878 78.7734 9.70393 78.5976 9.24162L78.5023 8.99095L78.7465 9.21342C78.8808 9.3358 79.1726 9.60706 79.395 9.81637ZM76.2515 10.0719C76.2218 10.1016 76.1445 10.1048 76.0799 10.079C76.0085 10.0504 76.0297 10.0292 76.134 10.0249C76.2284 10.021 76.2812 10.0422 76.2515 10.0719ZM77.5048 10.43C77.4751 10.4597 77.3978 10.4629 77.3333 10.4371C77.2619 10.4085 77.2831 10.3873 77.3874 10.383C77.4817 10.3791 77.5346 10.4003 77.5048 10.43ZM76.3205 10.6445C76.0681 10.753 75.1119 10.753 75.1119 10.6445C75.1119 10.5919 75.3987 10.5576 75.8057 10.5612C76.2765 10.5655 76.442 10.5923 76.3205 10.6445ZM77.35 10.6988C77.35 10.7182 77.2896 10.734 77.2158 10.734C77.1419 10.734 77.0815 10.695 77.0815 10.6473C77.0815 10.5996 77.1419 10.5838 77.2158 10.6121C77.2896 10.6405 77.35 10.6795 77.35 10.6988ZM78.2005 10.6445C78.231 10.6937 78.2132 10.734 78.1611 10.734C78.109 10.734 78.0662 10.6937 78.0662 10.6445C78.0662 10.5952 78.084 10.555 78.1057 10.555C78.1275 10.555 78.1701 10.5952 78.2005 10.6445ZM79.6329 10.6445C79.6634 10.6937 79.648 10.734 79.5987 10.734C79.5495 10.734 79.4843 10.6937 79.4539 10.6445C79.4235 10.5952 79.4389 10.555 79.4881 10.555C79.5373 10.555 79.6025 10.5952 79.6329 10.6445ZM69.333 10.9926C69.2863 11.0362 69.1473 11.0984 69.0242 11.1305L68.8004 11.1891L69.0242 11.0542C69.2736 10.9039 69.4697 10.8647 69.333 10.9926ZM65.4668 11.6923C65.3567 11.7135 65.1552 11.714 65.0192 11.6935C64.8831 11.673 64.9731 11.6556 65.2193 11.6549C65.4655 11.6542 65.5769 11.6711 65.4668 11.6923ZM66.5398 11.694C66.3798 11.7139 66.2489 11.7652 66.2489 11.808C66.2489 11.8508 66.1683 11.9114 66.0698 11.9426C65.9554 11.979 65.8908 12.0781 65.8908 12.2172C65.8908 12.337 65.8505 12.435 65.8013 12.435C65.752 12.435 65.7117 12.3018 65.7117 12.1389C65.7117 11.8993 65.7585 11.8243 65.9579 11.7456C66.0934 11.6921 66.3451 11.6505 66.5175 11.6531L66.8308 11.6579L66.5398 11.694ZM66.786 12.0769C66.786 12.1261 66.7457 12.1664 66.6965 12.1664C66.6473 12.1664 66.607 12.1261 66.607 12.0769C66.607 12.0277 66.6473 11.9874 66.6965 11.9874C66.7457 11.9874 66.786 12.0277 66.786 12.0769ZM71.1056 12.1362C71.0441 12.161 70.9434 12.161 70.8818 12.1362C70.8203 12.1114 70.8706 12.091 70.9937 12.091C71.1168 12.091 71.1672 12.1114 71.1056 12.1362ZM66.4279 12.2911C66.4279 12.3105 66.3675 12.3495 66.2936 12.3779C66.2198 12.4062 66.1594 12.3903 66.1594 12.3427C66.1594 12.295 66.2198 12.2559 66.2936 12.2559C66.3675 12.2559 66.4279 12.2718 66.4279 12.2911ZM67.2094 12.7576C67.1797 12.7874 67.1024 12.7906 67.0379 12.7647C66.9664 12.7362 66.9876 12.7149 67.0919 12.7106C67.1863 12.7068 67.2391 12.7279 67.2094 12.7576ZM70.4566 12.7388C70.4566 12.7581 70.3961 12.7971 70.3223 12.8255C70.2484 12.8538 70.188 12.8379 70.188 12.7903C70.188 12.7426 70.2484 12.7036 70.3223 12.7036C70.3961 12.7036 70.4566 12.7194 70.4566 12.7388ZM68.7556 13.275C68.7556 13.2939 68.6749 13.3304 68.5765 13.3562C68.4779 13.382 68.4198 13.3665 68.4474 13.3219C68.4956 13.2439 68.7556 13.2044 68.7556 13.275ZM73.0765 13.3933C72.9663 13.4145 72.7649 13.415 72.6288 13.3945C72.4927 13.3739 72.5828 13.3566 72.829 13.3559C73.0752 13.3552 73.1866 13.3721 73.0765 13.3933ZM71.9859 13.5093C72.1904 13.5093 72.2471 13.5495 72.2471 13.6947C72.2471 13.8634 72.2343 13.8674 72.1064 13.7395C72.029 13.6621 71.8477 13.5988 71.7036 13.5988C71.5594 13.5988 71.4414 13.5542 71.4414 13.4997C71.4414 13.4452 71.5051 13.4251 71.583 13.455C71.6609 13.4849 71.8422 13.5093 71.9859 13.5093ZM78.3429 13.8503C78.6673 13.9962 79.0992 14.2207 79.3026 14.3491L79.6724 14.5825L79.3857 15.0083C79.0664 15.4824 78.9358 15.6451 78.2946 16.3674C77.693 17.0453 77.6457 17.0903 77.5354 17.0903C77.4827 17.0903 77.4496 17.1268 77.462 17.1713C77.4893 17.2706 76.4552 18.1149 76.0657 18.3113C75.7473 18.4719 75.7526 18.4661 76.5219 17.8149C76.846 17.5405 77.0815 17.2696 77.0815 17.171C77.0815 16.9666 77.0551 16.9636 76.7312 17.1311C76.3887 17.3081 75.0624 17.4567 74.608 17.3688C73.538 17.162 72.9451 16.1549 73.3684 15.263C73.6636 14.641 74.7671 13.7974 75.5462 13.5983C75.7259 13.5524 76.2959 13.5306 76.8129 13.5499C77.6172 13.5799 77.838 13.6234 78.3429 13.8503ZM79.4987 13.6884C79.4987 13.7376 79.4809 13.7779 79.4592 13.7779C79.4374 13.7779 79.3948 13.7376 79.3644 13.6884C79.3339 13.6391 79.3517 13.5988 79.4038 13.5988C79.456 13.5988 79.4987 13.6391 79.4987 13.6884ZM42.6589 14.1421C41.4899 14.2906 39.1274 14.7861 38.9001 14.9304C38.8516 14.9612 38.63 15.0469 38.4077 15.1208C37.6986 15.3564 37.8727 15.4918 39.1674 15.7115C39.8075 15.8201 40.4924 15.9505 40.6893 16.0012C40.8863 16.0521 41.4705 16.1992 41.9875 16.3283C42.9866 16.5776 44.621 17.0986 45.0896 17.317C45.2448 17.3892 45.4062 17.4484 45.4483 17.4484C45.4905 17.4484 45.9679 17.6322 46.5091 17.8567C47.0504 18.0814 47.6061 18.3076 47.744 18.3595C47.882 18.4114 47.9779 18.4709 47.9571 18.4916C47.9218 18.5269 47.297 18.3046 46.6876 18.0398C46.0268 17.7528 45.0192 17.4339 44.9079 17.4766C44.8407 17.5024 44.7576 17.6359 44.7231 17.7733C44.6239 18.1685 44.1153 19.2389 44.0268 19.2389C43.9825 19.2389 43.9714 19.2792 44.0018 19.3285C44.0322 19.3777 44.0144 19.418 43.9623 19.418C43.9102 19.418 43.8675 19.4708 43.8675 19.5354C43.8675 19.6 43.797 19.7309 43.7108 19.8263C43.6247 19.9218 43.4534 20.1507 43.3303 20.335C43.2073 20.5193 43.0764 20.6704 43.0394 20.6707C43.0024 20.6711 42.9722 20.7245 42.9722 20.7895C42.9722 20.8544 42.8816 20.9916 42.7708 21.0942C42.4184 21.4204 42.1665 21.7231 42.1665 21.8203C42.1665 21.8721 42.0923 21.9672 42.0017 22.0315C41.7461 22.2129 41.6185 22.5212 41.6855 22.7957C41.7749 23.1622 42.2572 24.3499 42.4134 24.5884C42.4879 24.702 42.5284 24.8156 42.5034 24.8406C42.4783 24.8656 41.5664 24.911 40.4769 24.9415L38.496 24.9969L38.4944 24.7813C38.4917 24.3784 38.0237 23.5934 37.6876 23.4277C36.5728 22.8784 36.0292 22.7918 35.4944 23.0784C35.3003 23.1824 35.0674 23.2676 34.977 23.2676C34.7187 23.2676 34.0632 22.845 33.703 22.4464C33.3228 22.0256 33.3248 21.8172 33.7147 21.1887C34.0545 20.6409 34.2891 20.4057 34.6464 20.2546C35.0691 20.0759 36.0079 20.0099 36.647 20.114L37.1704 20.1994L37.5659 19.857C38.316 19.2078 39.0879 18.7116 40.0507 18.2598C40.5819 18.0105 41.0375 17.8065 41.0632 17.8065C41.0889 17.8065 41.2507 17.7397 41.4227 17.6581C41.5947 17.5764 42.044 17.424 42.421 17.3192C42.8291 17.2059 43.1065 17.0814 43.1065 17.0116C43.1065 16.6264 37.7379 15.5009 36.3474 15.5945C35.4295 15.6564 33.1353 16.512 32.1495 17.16C31.7706 17.4091 31.5776 17.5252 31.2279 17.7149C30.8423 17.9239 30.6177 18.2117 30.6177 18.4969C30.6177 19.0833 30.0317 20.7157 29.5852 21.3726C29.3071 21.7821 29.3076 21.9787 29.5882 22.3916C29.7113 22.5727 29.812 22.7551 29.812 22.797C29.812 22.8388 29.8735 22.9517 29.9487 23.048C30.0239 23.1441 30.2236 23.4444 30.3926 23.7152C30.5614 23.986 30.7373 24.2516 30.7834 24.3055C30.8295 24.3594 30.9306 24.526 31.0081 24.6758L31.1489 24.9482L28.4438 25.0023C26.956 25.032 24.379 25.0813 22.7171 25.1116L19.6956 25.1669V24.8095C19.6956 23.9358 19.181 23.0601 18.3981 22.6012C17.9466 22.3366 17.9371 22.3046 18.1372 21.7171C18.3278 21.1577 18.7845 20.761 20.6804 19.5075C22.097 18.571 23.4845 18.003 25.0552 17.7168C26.1913 17.5098 26.3863 17.5097 27.9767 17.7152C28.3706 17.7661 29.0519 17.846 29.4908 17.8927L30.2885 17.9777L31.0204 17.4908C31.8303 16.9519 33.367 16.1663 34.333 15.7973C34.6777 15.6656 35.0806 15.5029 35.2283 15.4357C35.6439 15.2466 37.2173 14.7795 37.9141 14.6383C39.9391 14.2279 41.125 14.0806 42.4351 14.0763C43.1899 14.0738 43.1917 14.0743 42.6589 14.1421ZM81.1101 15.2998C81.1101 15.3491 81.0473 15.3893 80.9705 15.3893C80.8938 15.3893 80.8559 15.3491 80.8863 15.2998C80.9167 15.2506 80.9795 15.2103 81.0259 15.2103C81.0722 15.2103 81.1101 15.2506 81.1101 15.2998ZM79.5306 16.7226C79.489 16.7755 79.2301 16.543 79.2301 16.4527C79.2301 16.4095 79.3039 16.4446 79.3942 16.5308C79.4845 16.617 79.5459 16.7033 79.5306 16.7226ZM78.7811 17.1575C78.7803 17.2469 78.751 17.2757 78.7129 17.2246C78.6762 17.1754 78.6096 17.1048 78.5651 17.0679C78.5205 17.0311 78.5512 17.0008 78.6332 17.0008C78.7162 17.0008 78.7818 17.0704 78.7811 17.1575ZM60.1599 18.6075C61.0434 19.2545 62.4715 20.7063 63.2872 21.7868C63.9178 22.6222 63.9402 22.6411 64.3071 22.6478C64.5134 22.6516 64.7628 22.6713 64.8612 22.6917C64.9597 22.7121 65.6647 22.7704 66.4279 22.8215C67.1911 22.8725 68.2184 22.9552 68.7108 23.0055C69.2032 23.0556 69.8277 23.115 70.0985 23.1376C70.5944 23.1789 70.773 23.2039 72.9486 23.5382C74.438 23.7671 76.2461 24.1933 76.7681 24.4385C76.8666 24.4848 77.1532 24.5942 77.4049 24.6817C77.6567 24.7693 77.9588 24.911 78.0764 24.9966C78.282 25.1464 78.2409 25.1504 76.9919 25.1014C75.7536 25.0529 56.3611 24.8832 51.7352 24.8804L49.5312 24.879L49.4816 24.5095C49.4458 24.2426 49.3369 24.0414 49.0893 23.785C48.6966 23.3783 47.9175 22.9612 47.7697 23.0786C47.7162 23.1211 47.4344 23.1848 47.1435 23.22C46.8527 23.2551 46.5597 23.3051 46.4924 23.3309C46.4244 23.357 46.2306 23.2299 46.0559 23.0446C45.6747 22.6404 45.6982 22.599 46.5863 22.114C47.9096 21.3911 49.303 21.0532 51.2086 20.993C52.4605 20.9535 52.5443 20.8548 51.7078 20.4052C51.3895 20.2341 51.1438 20.0796 51.1617 20.0618C51.1795 20.0439 51.5499 20.1998 51.9847 20.4082L52.7753 20.7872L53.9839 20.647C54.6486 20.5699 55.2932 20.4837 55.4163 20.4555C55.7272 20.3841 58.8472 20.2256 59.9597 20.2246C60.6817 20.2239 60.8773 20.1973 60.8773 20.0996C60.8773 19.8681 60.1505 18.8857 59.6399 18.427C59.1668 18.0021 59.1564 17.9846 59.4897 18.1747C59.6867 18.2871 59.9883 18.4818 60.1599 18.6075ZM49.6694 19.2558C51.1307 19.9707 51.0745 19.94 51.02 19.9945C50.9983 20.0162 50.7398 19.9098 50.4456 19.7581C50.1512 19.6063 49.5278 19.2885 49.06 19.0517C48.5922 18.815 48.242 18.6192 48.2817 18.6167C48.3215 18.6143 48.9459 18.9019 49.6694 19.2558ZM76.586 21.8217C76.5355 21.8748 76.3653 21.7403 76.3653 21.6473C76.3653 21.599 76.4217 21.6114 76.4905 21.675C76.5594 21.7385 76.6024 21.8046 76.586 21.8217ZM77.6839 21.7997C77.6542 21.8294 77.5769 21.8327 77.5124 21.8068C77.4409 21.7782 77.4621 21.757 77.5664 21.7527C77.6608 21.7489 77.7136 21.77 77.6839 21.7997ZM83.5896 25.3136C83.4594 25.3698 83.4351 25.2725 83.5017 24.9605L83.5669 24.6552L83.615 24.9686C83.6415 25.1409 83.6301 25.2961 83.5896 25.3136ZM85.0218 25.2131C84.999 25.3002 84.979 25.2506 84.9772 25.1029C84.9754 24.9551 84.9939 24.8839 85.0184 24.9445C85.043 25.0051 85.0445 25.126 85.0218 25.2131ZM82.3064 25.1029C82.3346 25.1767 82.3188 25.2371 82.2712 25.2371C82.2235 25.2371 82.1844 25.1767 82.1844 25.1029C82.1844 25.029 82.2003 24.9686 82.2196 24.9686C82.2389 24.9686 82.278 25.029 82.3064 25.1029ZM17.4575 25.1476C17.4575 25.1969 17.4148 25.2371 17.3627 25.2371C17.3106 25.2371 17.2927 25.1969 17.3232 25.1476C17.3536 25.0984 17.3962 25.0581 17.418 25.0581C17.4398 25.0581 17.4575 25.0984 17.4575 25.1476ZM91.4266 25.3645C91.1179 25.6474 91.0922 25.7089 91.0922 26.1644C91.0922 26.5897 91.129 26.6961 91.3585 26.9356C91.6156 27.2041 91.6474 27.2126 92.2953 27.1877C92.9466 27.1627 92.9717 27.1533 93.1705 26.8577C93.5211 26.3365 93.3951 25.5389 92.9081 25.1978C92.7883 25.114 92.5192 25.0581 92.2348 25.0581C91.8201 25.0581 91.7192 25.0963 91.4266 25.3645ZM92.8449 25.5884C93.0386 25.7821 93.1065 25.935 93.1065 26.1772C93.1065 26.4193 93.0386 26.5722 92.8449 26.766C92.5019 27.1089 92.0663 27.1201 91.681 26.7959C91.4517 26.6029 91.4055 26.4994 91.4055 26.1772C91.4055 25.855 91.4517 25.7514 91.681 25.5584C92.0663 25.2342 92.5019 25.2454 92.8449 25.5884ZM91.4951 25.9533C91.4951 26.0026 91.5354 26.0429 91.5846 26.0429C91.6338 26.0429 91.6741 26.1436 91.6741 26.2667C91.6741 26.406 91.7249 26.4905 91.8084 26.4905C91.8919 26.4905 91.9427 26.406 91.9427 26.2667C91.9427 26.1436 91.983 26.0429 92.0322 26.0429C92.0815 26.0429 92.1218 26.1436 92.1218 26.2667C92.1218 26.5221 92.2671 26.5693 92.3286 26.3338C92.362 26.2061 92.3714 26.2036 92.3799 26.3202C92.3868 26.4153 92.4805 26.4658 92.6589 26.4709C92.9066 26.478 92.9275 26.4547 92.9275 26.1712C92.9275 25.9274 92.8918 25.8638 92.755 25.8638C92.6602 25.8638 92.5641 25.9344 92.5415 26.0205C92.5026 26.1697 92.5001 26.1697 92.4902 26.0205C92.4817 25.8916 92.3927 25.8638 91.9875 25.8638C91.7167 25.8638 91.4951 25.9041 91.4951 25.9533ZM49.1282 26.373C49.0426 26.3953 48.8815 26.3961 48.7701 26.3747C48.6587 26.3533 48.7287 26.335 48.9257 26.334C49.1226 26.333 49.2138 26.3506 49.1282 26.373ZM48.2779 26.5535C48.1678 26.5747 47.9663 26.5753 47.8303 26.5548C47.6942 26.5342 47.7842 26.5168 48.0304 26.5161C48.2766 26.5155 48.388 26.5323 48.2779 26.5535ZM5.46106 28.7906C4.6718 28.923 4.03259 29.3326 3.62713 29.9656C3.37798 30.3546 3.35631 30.4557 3.32713 31.3664C3.30904 31.9285 3.33823 32.4904 3.39544 32.6813C3.54996 33.197 4.12059 33.8568 4.57475 34.0449C4.79141 34.1346 5.04924 34.2512 5.14772 34.3038C5.2462 34.3565 5.97135 34.4169 6.75918 34.438C8.46786 34.484 8.59445 34.5316 8.59445 35.1297C8.59445 35.8225 8.52211 35.8412 5.71146 35.8737L3.31245 35.9013V36.9277V37.9542L6.51298 37.9208C8.27323 37.9024 9.79409 37.8687 9.89257 37.8458C9.99105 37.823 10.3226 37.6909 10.6294 37.5523C11.0829 37.3473 11.233 37.223 11.4335 36.8865C12.109 35.7519 12.057 34.0595 11.3198 33.182C10.7509 32.5049 10.1788 32.3216 8.4154 32.2513C7.65219 32.2208 6.95533 32.1586 6.86679 32.1131C6.43402 31.8902 6.52355 31.1404 7.00287 30.9733C7.17189 30.9143 8.18917 30.8773 9.63733 30.8773H11.9964V29.8029V28.7286L8.84065 28.7408C7.10493 28.7475 5.58415 28.7699 5.46106 28.7906ZM15.4879 28.8268C14.1806 29.0544 13.0419 30.072 12.6815 31.3348C12.3691 32.4287 12.3346 32.9891 12.4328 35.3765C12.4848 36.6448 12.5044 37.7426 12.4762 37.8161C12.4319 37.9316 12.6453 37.9498 14.0459 37.9498H15.667V36.7412V35.5326L16.1817 35.533C16.4648 35.5332 17.1498 35.5595 17.7037 35.5914L18.7108 35.6495V36.8016V37.9537L20.3894 37.9294L22.068 37.905L22.0674 35.6669C22.0671 34.4359 22.047 32.3812 22.0227 31.1008L21.9785 28.773L18.9794 28.757C17.3299 28.7482 15.7587 28.7797 15.4879 28.8268ZM22.829 30.7406C22.8044 31.8251 22.7842 33.8808 22.7842 35.3088V37.905H26.1862H29.5882L30.0848 37.6648C30.9449 37.2487 31.2725 36.7856 31.4457 35.7407C31.5575 35.0657 31.4282 33.974 31.1884 33.5679C31.0572 33.3461 31.0565 33.3012 31.1803 33.1069C31.4036 32.7566 31.5403 31.8787 31.4772 31.1999C31.3759 30.1108 30.9739 29.4749 30.1102 29.0377L29.5882 28.7734L26.231 28.7711L22.8738 28.7687L22.829 30.7406ZM34.9597 28.8616C33.8502 29.1069 32.9632 29.8057 32.4543 30.8356C32.0432 31.6678 31.9249 32.4122 31.9852 33.7868C32.0326 34.8649 32.2452 35.7211 32.5541 36.0768C32.6216 36.1545 32.6768 36.2566 32.6768 36.3037C32.6768 36.4712 33.6229 37.3175 33.9749 37.465C35.0349 37.909 35.3705 37.9498 37.9699 37.9498C39.979 37.9498 40.4631 37.9262 40.5474 37.8246C40.615 37.7433 40.6423 37.3909 40.6255 36.8174L40.5998 35.9354L38.4891 35.8907C36.3802 35.8459 36.3781 35.8457 36.0141 35.6046C35.7568 35.4342 35.6037 35.2429 35.4932 34.9535C35.4072 34.7282 35.3538 34.5268 35.3747 34.5059C35.3955 34.485 36.4488 34.4394 37.7152 34.4045L40.0179 34.3411V33.3254V32.3097L37.7574 32.2991C36.5141 32.2932 35.4619 32.2948 35.4192 32.3026C35.3029 32.3237 35.4404 31.8589 35.6519 31.5157C35.9709 30.9984 36.3776 30.8815 37.8693 30.8787C38.5833 30.8773 39.4997 30.8503 39.906 30.8187L40.6446 30.7612V29.7449V28.7286L38.0707 28.7357C36.2865 28.7407 35.332 28.7793 34.9597 28.8616ZM41.1308 33.3081L41.1915 37.905L42.7756 37.9294L44.3599 37.9538L44.3322 36.153L44.3046 34.3522L45.2468 34.3828C46.5667 34.4258 46.5085 34.3354 46.5085 36.3415V37.9498H48.1423H49.7762L49.7755 36.495C49.7748 34.8562 49.6687 34.0133 49.4108 33.596C49.2655 33.361 49.2553 33.2904 49.3521 33.191C49.4166 33.1248 49.5182 32.9048 49.578 32.7021C49.7099 32.2549 49.723 30.7312 49.5957 30.6525C49.5457 30.6216 49.5261 30.5616 49.5524 30.5191C49.5786 30.4767 49.5585 30.4163 49.5076 30.3849C49.4568 30.3534 49.438 30.2909 49.4658 30.2457C49.4937 30.2006 49.3936 30.0436 49.2435 29.8969C49.0933 29.75 48.9705 29.591 48.9705 29.5434C48.9705 29.4959 48.8893 29.4311 48.7901 29.3996C48.6909 29.3682 48.6277 29.3134 48.6496 29.278C48.6715 29.2424 48.6053 29.2071 48.5023 29.1994C48.3994 29.1916 48.2913 29.1496 48.2623 29.106C48.1012 28.8642 47.3011 28.7941 44.237 28.7533L41.0702 28.7112L41.1308 33.3081ZM49.9932 29.7582L50 30.743L51.4138 30.7677L52.8276 30.7923L52.8014 34.373L52.7753 37.9536L54.4315 37.9293L56.0877 37.905V34.3687V30.8325L57.4978 30.8592L58.9078 30.8858V29.795V28.7041L54.4471 28.7388L49.9864 28.7734L49.9932 29.7582ZM62.1449 28.8291C61.5505 28.9279 60.966 29.2036 60.3645 29.6687C59.2735 30.5124 58.7528 32.5404 59.0915 34.6273C59.2958 35.8864 59.989 36.934 60.9296 37.405C61.2292 37.555 61.5515 37.6898 61.6458 37.7045C61.7402 37.7191 61.8778 37.7703 61.9517 37.8181C62.0255 37.8659 62.791 37.9179 63.6526 37.9337C65.0998 37.9602 65.2834 37.9452 66.0591 37.7356C66.5209 37.6109 66.9674 37.4468 67.0511 37.371C67.1349 37.2952 67.2242 37.2539 67.2495 37.2792C67.294 37.3237 68.3316 36.2501 68.332 36.1593C68.3322 36.1089 68.5572 35.5694 68.6765 35.3331C68.8524 34.9849 69.0379 33.4199 68.9818 32.7573C68.9269 32.1079 68.6175 30.8791 68.486 30.7877C68.4506 30.7631 68.3941 30.6548 68.3604 30.5469C68.3269 30.4391 68.0913 30.1418 67.8371 29.8862C67.3064 29.3528 66.4924 28.9382 65.7306 28.8134C65.1028 28.7106 62.7971 28.7207 62.1449 28.8291ZM72.5604 28.8611C71.4614 29.1031 70.5215 29.7939 70.0493 30.7066C69.6079 31.5598 69.4425 33.3183 69.688 34.5488C69.8556 35.3888 70.0123 35.8907 70.1067 35.8907C70.1407 35.8907 70.1943 35.993 70.2257 36.1182C70.2571 36.2432 70.3218 36.3215 70.3696 36.2919C70.4175 36.2624 70.4566 36.3032 70.4566 36.3826C70.4566 36.4621 70.5773 36.6559 70.7247 36.8131C70.8722 36.9705 70.9931 37.1319 70.9933 37.1717C70.9936 37.2115 71.034 37.2192 71.0833 37.1888C71.1325 37.1584 71.1728 37.1829 71.1728 37.2432C71.1728 37.3036 71.1991 37.3266 71.2312 37.2944C71.2635 37.2623 71.4145 37.3121 71.567 37.4051C72.2218 37.8046 73.0301 37.9499 74.5844 37.9476C75.3916 37.9464 76.2309 37.9041 76.4497 37.8537C77.1174 37.6998 77.9125 37.2737 78.2987 36.8628C79.0384 36.0756 79.3015 35.3605 79.3809 33.9211C79.5427 30.9871 78.5766 29.3152 76.4548 28.8573C75.7095 28.6965 73.2975 28.6988 72.5604 28.8611ZM79.3818 28.7958C79.361 28.8328 79.3633 29.3061 79.387 29.8477L79.4301 30.8325L80.8645 30.8057L82.2988 30.779L82.264 34.342L82.2292 37.905L83.8854 37.9294L85.5416 37.9536L85.5163 34.3707L85.491 30.7877H86.9263H88.3617V29.8173V28.8469L86.0643 28.7877C82.9856 28.7085 79.4286 28.7128 79.3818 28.7958ZM88.5536 33.3636L88.5218 37.9539L90.1651 37.9294L91.8084 37.905L91.8328 36.1816L91.857 34.4583H93.198H94.5389V36.204V37.9498H96.1504H97.7619V33.3392V28.7286H96.1504H94.5389V30.5208V32.3128L93.1737 32.305L91.8084 32.2971L91.8065 31.7886C91.8055 31.5089 91.7955 30.7161 91.7842 30.0268L91.7637 28.7734H90.1746H88.5855L88.5536 33.3636ZM84.8926 29.6886C84.7325 29.7085 84.4707 29.7085 84.3107 29.6886C84.1506 29.6688 84.2816 29.6525 84.6016 29.6525C84.9217 29.6525 85.0526 29.6688 84.8926 29.6886ZM89.1431 30.5863C89.1238 30.771 89.108 30.6199 89.108 30.2506C89.108 29.8813 89.1238 29.7302 89.1431 29.9149C89.1624 30.0995 89.1624 30.4017 89.1431 30.5863ZM97.2888 30.3177C97.2683 30.4531 97.2516 30.3423 97.2516 30.0715C97.2516 29.8007 97.2683 29.69 97.2888 29.8253C97.3093 29.9607 97.3093 30.1824 97.2888 30.3177ZM86.5518 30.4058C86.3195 30.4242 85.9167 30.4243 85.6566 30.4062C85.3964 30.3881 85.5864 30.373 86.0788 30.3728C86.5712 30.3726 86.7841 30.3874 86.5518 30.4058ZM89.5867 30.6255C89.5581 30.6969 89.5369 30.6756 89.5326 30.5713C89.5287 30.477 89.5499 30.4242 89.5796 30.4539C89.6093 30.4836 89.6125 30.5609 89.5867 30.6255ZM18.7108 32.1754V33.4735H17.1906H15.6704L15.7176 33.0482C15.7437 32.8143 15.7848 32.4576 15.809 32.2553C15.8633 31.8032 16.3012 31.183 16.685 31.0147C16.8544 30.9404 17.3098 30.889 17.838 30.8846L18.7108 30.8773V32.1754ZM27.8005 31.007C28.0948 31.1299 28.111 31.1595 28.111 31.5745C28.111 31.9568 28.0821 32.0255 27.883 32.1162C27.7576 32.1734 27.3245 32.22 26.9206 32.22L26.1862 32.2197V31.5484V30.8771L26.8381 30.8772C27.2047 30.8773 27.626 30.934 27.8005 31.007ZM46.2962 31.1301C46.543 31.3505 46.5717 31.422 46.5209 31.6896C46.4333 32.1518 46.0865 32.3097 45.1584 32.3097H44.4047V31.5935V30.8773H45.209C45.965 30.8773 46.0303 30.8924 46.2962 31.1301ZM64.7445 31.0834C64.9932 31.1877 65.1377 31.3405 65.3264 31.6987C65.5655 32.1527 65.5774 32.2328 65.5774 33.384C65.5774 34.4664 65.5564 34.632 65.3757 34.97C65.0842 35.5155 64.6221 35.8012 64.0312 35.8012C63.3466 35.8012 62.9024 35.5495 62.6473 35.0169C62.4659 34.6381 62.444 34.458 62.444 33.3392C62.444 32.1916 62.4622 32.0503 62.6596 31.6641C63.0293 30.9408 63.8556 30.7106 64.7445 31.0834ZM75.315 31.1035C75.6498 31.2906 75.7561 31.4182 75.9306 31.8421C76.1137 32.287 76.1414 32.5026 76.1414 33.4798C76.1414 34.4281 76.1132 34.6603 75.9624 34.9569C75.7504 35.3735 75.6379 35.4769 75.1392 35.7129C74.718 35.9123 74.4959 35.93 74.0318 35.801C73.7229 35.7152 73.1318 35.2685 73.1244 35.1153C73.1225 35.074 73.0795 34.9395 73.0289 34.8164C72.8884 34.4744 72.8433 33.0461 72.9543 32.4491C73.1002 31.6636 73.3106 31.3131 73.7743 31.0824C74.3112 30.8154 74.8118 30.8222 75.315 31.1035ZM7.13966 33.269C7.00421 33.2895 6.78272 33.2895 6.64727 33.269C6.51182 33.2485 6.62265 33.2318 6.89347 33.2318C7.16428 33.2318 7.27511 33.2485 7.13966 33.269ZM8.59445 33.2944C8.59445 33.3437 8.51388 33.384 8.4154 33.384C8.31692 33.384 8.23635 33.3437 8.23635 33.2944C8.23635 33.2452 8.31692 33.2049 8.4154 33.2049C8.51388 33.2049 8.59445 33.2452 8.59445 33.2944ZM6.2009 33.3575C6.09078 33.3787 5.88935 33.3792 5.75327 33.3587C5.61719 33.3381 5.70725 33.3208 5.95345 33.32C6.19964 33.3194 6.31101 33.3362 6.2009 33.3575ZM9.49293 33.5143C9.43348 33.586 9.41459 33.693 9.45103 33.752C9.49114 33.8168 9.4795 33.8358 9.42167 33.8001C9.36903 33.7676 9.30555 33.7916 9.28057 33.8534C9.25569 33.9153 9.23205 33.835 9.2282 33.6749C9.22238 33.4358 9.25497 33.384 9.4111 33.384C9.56732 33.384 9.58192 33.4072 9.49293 33.5143ZM7.8111 33.629C7.55255 33.6471 7.12963 33.6471 6.87108 33.629C6.61253 33.6109 6.82408 33.5961 7.34109 33.5961C7.8581 33.5961 8.06965 33.6109 7.8111 33.629ZM10.4073 33.8013C10.3458 33.8262 10.2451 33.8262 10.1835 33.8013C10.122 33.7765 10.1723 33.7562 10.2954 33.7562C10.4185 33.7562 10.4689 33.7765 10.4073 33.8013ZM5.90869 34.1002C5.90869 34.1494 5.83823 34.1891 5.75202 34.1884C5.61809 34.1872 5.61486 34.1743 5.72963 34.1002C5.89857 33.9909 5.90869 33.9909 5.90869 34.1002ZM7.16204 34.1393C7.2359 34.1556 7.06464 34.1736 6.78156 34.1793C6.49848 34.185 6.26679 34.1585 6.26679 34.1202C6.26679 34.0565 6.84262 34.0687 7.16204 34.1393ZM18.2632 34.2345C18.2632 34.3339 18.1587 34.3687 17.8603 34.3687C17.562 34.3687 17.4575 34.3339 17.4575 34.2345C17.4575 34.135 17.562 34.1002 17.8603 34.1002C18.1587 34.1002 18.2632 34.135 18.2632 34.2345ZM20.949 34.2345C20.949 34.3314 20.8495 34.3687 20.5909 34.3687C20.3322 34.3687 20.2328 34.3314 20.2328 34.2345C20.2328 34.1375 20.3322 34.1002 20.5909 34.1002C20.8495 34.1002 20.949 34.1375 20.949 34.2345ZM29.2746 34.4807C29.2748 34.5176 29.1771 34.5478 29.0576 34.5478C28.9231 34.5478 28.8277 34.6075 28.807 34.7045C28.7828 34.8179 28.7605 34.7978 28.7264 34.6312C28.6831 34.4202 28.7037 34.4019 28.9768 34.4074C29.1405 34.4107 29.2744 34.4437 29.2746 34.4807ZM19.1585 34.5478C19.1585 34.597 19.0577 34.6373 18.9346 34.6373C18.8115 34.6373 18.7076 34.6877 18.7038 34.7492C18.699 34.8247 18.6832 34.8282 18.6551 34.7599C18.629 34.6963 18.4064 34.6668 18.0578 34.6806C17.7421 34.693 17.6858 34.6864 17.9275 34.6653C18.1614 34.6448 18.3527 34.5898 18.3527 34.5431C18.3527 34.4964 18.534 34.4583 18.7556 34.4583C18.9772 34.4583 19.1585 34.4986 19.1585 34.5478ZM27.8424 34.5736C28.0218 34.6639 28.0719 34.7648 28.0946 35.0822C28.1364 35.6658 27.9271 35.7966 26.9472 35.7993L26.1862 35.8013V35.13V34.4587L26.9024 34.4598C27.2975 34.4604 27.719 34.5114 27.8424 34.5736ZM29.6553 34.6071C29.5938 34.6319 29.4931 34.6319 29.4315 34.6071C29.37 34.5823 29.4203 34.5619 29.5434 34.5619C29.6665 34.5619 29.7169 34.5823 29.6553 34.6071ZM11.0728 35.1913C11.0442 35.2627 11.023 35.2414 11.0187 35.1371C11.0149 35.0428 11.036 34.99 11.0657 35.0197C11.0954 35.0494 11.0987 35.1267 11.0728 35.1913ZM11.4318 35.3294C11.409 35.4166 11.389 35.367 11.3872 35.2192C11.3854 35.0715 11.4039 35.0003 11.4285 35.0609C11.453 35.1215 11.4545 35.2423 11.4318 35.3294ZM16.6741 35.1505C16.4648 35.1694 16.1225 35.1694 15.9132 35.1505C15.7039 35.1317 15.8751 35.1162 16.2936 35.1162C16.7122 35.1162 16.8834 35.1317 16.6741 35.1505ZM43.8427 36.0921C43.8229 36.2522 43.8066 36.1212 43.8066 35.8012C43.8066 35.4811 43.8229 35.3501 43.8427 35.5102C43.8626 35.6703 43.8626 35.932 43.8427 36.0921ZM47.1004 35.8713C47.0635 36.4766 47.0009 36.4607 47.0009 35.8459C47.0009 35.5587 47.0291 35.3518 47.0635 35.3863C47.0979 35.4207 47.1145 35.6389 47.1004 35.8713ZM48.6935 35.9802C48.6867 36.4576 48.6436 36.373 48.5846 35.7667C48.5585 35.4973 48.5722 35.377 48.6206 35.4533C48.6638 35.5216 48.6966 35.7586 48.6935 35.9802ZM28.8272 35.6605C28.8272 35.8552 28.5845 36.2149 28.5061 36.1365C28.4737 36.1041 28.755 35.4431 28.8011 35.4431C28.8155 35.4431 28.8272 35.5409 28.8272 35.6605ZM30.4108 36.0473C30.3884 36.1335 30.3699 36.063 30.3699 35.8907C30.3699 35.7183 30.3884 35.6479 30.4108 35.734C30.4334 35.8201 30.4334 35.9612 30.4108 36.0473ZM30.8847 35.9425C30.8449 36.1188 30.7824 36.29 30.7456 36.323C30.7088 36.356 30.7053 36.3093 30.7378 36.2191C30.7702 36.1289 30.7968 35.9576 30.7968 35.8386C30.7968 35.7195 30.8329 35.6221 30.8769 35.6221C30.9226 35.6221 30.9259 35.7599 30.8847 35.9425ZM34.8847 35.9131C34.8599 35.9747 34.8396 35.9243 34.8396 35.8012C34.8396 35.6781 34.8599 35.6277 34.8847 35.6892C34.9096 35.7508 34.9096 35.8516 34.8847 35.9131ZM49.1232 36.1816C49.1018 36.2925 49.0843 36.2018 49.0843 35.9802C49.0843 35.7586 49.1018 35.6679 49.1232 35.7788C49.1445 35.8896 49.1445 36.0708 49.1232 36.1816ZM33.6929 36.0697C33.7666 36.2174 33.7897 36.3383 33.7442 36.3383C33.6988 36.3383 33.6616 36.2936 33.6616 36.2391C33.6616 36.178 33.5756 36.1614 33.4378 36.1961C33.3087 36.2284 33.214 36.2136 33.214 36.161C33.214 36.1108 33.2744 36.0697 33.3483 36.0697C33.4221 36.0697 33.4825 36.0093 33.4825 35.9354C33.4825 35.7328 33.5446 35.7724 33.6929 36.0697ZM41.6914 36.2247C41.6687 36.3118 41.6486 36.2622 41.6468 36.1145C41.645 35.9668 41.6636 35.8955 41.6881 35.9561C41.7126 36.0167 41.7141 36.1376 41.6914 36.2247ZM54.7237 35.9537C54.6136 35.9749 54.4122 35.9755 54.2761 35.955C54.14 35.9344 54.2301 35.917 54.4763 35.9163C54.7225 35.9157 54.8338 35.9325 54.7237 35.9537ZM55.4124 36.0274C55.4676 35.9933 55.503 36.0543 55.4987 36.1764C55.4949 36.2901 55.4714 36.3328 55.4466 36.2712C55.4217 36.2097 55.304 36.1593 55.185 36.1593C54.9747 36.1593 54.9079 36.0709 55.0276 35.9511C55.06 35.9187 55.1388 35.9356 55.2027 35.9887C55.2666 36.0417 55.361 36.0592 55.4124 36.0274ZM53.9839 36.0697C53.9839 36.119 53.8026 36.1593 53.581 36.1593C53.3594 36.1593 53.1782 36.119 53.1782 36.0697C53.1782 36.0205 53.3594 35.9802 53.581 35.9802C53.8026 35.9802 53.9839 36.0205 53.9839 36.0697ZM35.1835 36.1497C35.1835 36.1936 35.1174 36.255 35.0366 36.286C34.9137 36.3332 34.9081 36.32 35.0028 36.2061C35.1317 36.0508 35.1835 36.0345 35.1835 36.1497ZM14.8431 36.798C14.8149 36.9772 14.8023 36.9646 14.7611 36.716C14.7316 36.538 14.7447 36.4545 14.7944 36.5042C14.8395 36.5493 14.8614 36.6815 14.8431 36.798ZM15.1298 36.8157C15.1298 37.101 15.0943 37.2037 14.9955 37.2037C14.9217 37.2037 14.8612 37.1702 14.8612 37.1291C14.8612 37.0881 14.9015 37.0545 14.9508 37.0545C15 37.0545 15.0403 36.9135 15.0403 36.7412C15.0403 36.5688 15.0604 36.4278 15.0851 36.4278C15.1097 36.4278 15.1298 36.6024 15.1298 36.8157ZM34.5877 36.566C34.5585 36.642 34.5155 36.6849 34.492 36.6615C34.4686 36.638 34.4759 36.5758 34.5084 36.5234C34.5967 36.3805 34.6483 36.4082 34.5877 36.566ZM41.7995 37.1664C41.8044 37.3018 41.7681 37.4126 41.7189 37.4126C41.6695 37.4126 41.6334 37.2022 41.6383 36.9426C41.6453 36.5728 41.6625 36.5203 41.7189 36.6964C41.7583 36.8195 41.7945 37.0311 41.7995 37.1664ZM66.2936 36.8755C66.2632 36.9247 66.1903 36.9644 66.1317 36.9636C66.0676 36.9627 66.0787 36.9276 66.1594 36.8755C66.3313 36.7643 66.3623 36.7643 66.2936 36.8755ZM34.3765 37.0321C34.3756 37.1287 34.3499 37.151 34.3093 37.0903C34.2731 37.0362 34.1831 36.9688 34.1092 36.9407C34.0195 36.9065 34.0418 36.8873 34.1764 36.8825C34.3117 36.8778 34.3773 36.9268 34.3765 37.0321ZM76.0936 37.1926C76.0141 37.2884 75.9504 37.3021 75.8856 37.2373C75.7575 37.1092 75.4929 37.12 75.4479 37.2551C75.4213 37.335 75.3671 37.3225 75.255 37.2104C75.1068 37.0622 75.1266 37.0545 75.6536 37.0545C76.1432 37.0545 76.1947 37.0707 76.0936 37.1926ZM9.04208 37.467C9.04208 37.4863 8.95909 37.5021 8.85775 37.5021C8.7564 37.5021 8.69723 37.4636 8.72632 37.4166C8.77413 37.3392 9.04208 37.382 9.04208 37.467ZM28.6057 37.4849C28.5782 37.5124 28.506 37.4849 28.4452 37.4237C28.3575 37.3353 28.3678 37.3251 28.4953 37.3736C28.5836 37.4072 28.6333 37.4573 28.6057 37.4849ZM7.22731 37.4667C7.19758 37.4964 7.12032 37.4996 7.05578 37.4738C6.98433 37.4452 7.00555 37.424 7.10985 37.4197C7.20421 37.4158 7.25703 37.437 7.22731 37.4667ZM8.21209 37.4667C8.18236 37.4964 8.1051 37.4996 8.04056 37.4738C7.96912 37.4452 7.99033 37.424 8.09463 37.4197C8.18899 37.4158 8.24181 37.437 8.21209 37.4667ZM14.4808 37.4767C14.3454 37.4972 14.1237 37.4972 13.9884 37.4767C13.853 37.4562 13.9637 37.4395 14.2346 37.4395C14.5054 37.4395 14.6161 37.4562 14.4808 37.4767ZM38.966 37.4786C38.7075 37.4967 38.2844 37.4967 38.026 37.4786C37.7675 37.4605 37.979 37.4457 38.496 37.4457C39.013 37.4457 39.2244 37.4605 38.966 37.4786ZM42.7273 37.4756C42.6172 37.4969 42.4158 37.4974 42.2797 37.4769C42.1436 37.4563 42.2337 37.4389 42.4799 37.4382C42.7261 37.4376 42.8374 37.4544 42.7273 37.4756ZM73.6552 37.4667C73.6255 37.4964 73.5483 37.4996 73.4837 37.4738C73.4123 37.4452 73.4335 37.424 73.5378 37.4197C73.6321 37.4158 73.685 37.437 73.6552 37.4667ZM75.94 37.4719C75.8785 37.4968 75.7778 37.4968 75.7162 37.4719C75.6547 37.4471 75.705 37.4268 75.8281 37.4268C75.9512 37.4268 76.0016 37.4471 75.94 37.4719ZM36.2182 40.2079C36.0996 40.3771 36.0788 40.8047 36.0788 43.0727V45.7385H36.6142H37.1497L37.1738 43.748L37.1979 41.7575L38.7057 43.1884C41.1008 45.4613 41.4171 45.7363 41.7022 45.7934C41.9019 45.8333 42.0161 45.7994 42.1572 45.6583C42.3405 45.475 42.3456 45.3956 42.3456 42.7394V40.0089H41.8084H41.2713V41.9858C41.2713 43.0997 41.2365 43.9499 41.1918 43.933C41.1481 43.9166 40.4715 43.2989 39.6883 42.5603C37.2825 40.2918 36.9438 40.0089 36.6333 40.0089C36.4498 40.0089 36.3108 40.0755 36.2182 40.2079ZM7.52014 40.6355V41.1727H8.68398H9.84781V43.4556V45.7385H10.385H10.9221V43.4556V41.1727H12.0859H13.2498V40.6355V40.0984H10.385H7.52014V40.6355ZM14.4136 42.9184V45.7385H17.0994H19.7851V45.2013V44.6642H17.6365H15.4879V42.9184V41.1727H17.6365H19.7851V40.6355V40.0984H17.0994H14.4136V42.9184ZM22.8474 40.2679C21.9295 40.585 21.2999 41.3199 21.1223 42.2814C20.9979 42.9549 21.079 43.5303 21.3915 44.191C21.6752 44.791 22.0346 45.1299 22.7395 45.4618C23.2171 45.6867 23.2928 45.6946 25.2686 45.7222L27.3053 45.7506V45.2074V44.6642L25.4476 44.6622C23.8392 44.6605 23.5415 44.6382 23.2282 44.4959C22.1383 44.0008 21.8614 42.4839 22.714 41.679C23.1911 41.2285 23.4189 41.1869 25.4476 41.1795L27.3053 41.1727V40.6355V40.0984L25.3133 40.1013C23.6211 40.1037 23.25 40.1289 22.8474 40.2679ZM28.6482 42.9184V45.7385H29.2301H29.812V42.9184V40.0984H29.2301H28.6482V42.9184ZM33.393 41.2622V42.426H31.9158H30.4387V42.8737V43.3213H31.9158H33.393V44.5299V45.7385H33.9749H34.5568V42.9184V40.0984H33.9749H33.393V41.2622ZM45.5087 40.2604C45.2542 40.3504 44.8975 40.5373 44.7159 40.6758C43.7327 41.4258 43.4195 42.9931 44.0174 44.1718C44.3339 44.7959 44.625 45.0768 45.2974 45.4078L45.8785 45.6937H47.4021C48.8815 45.6937 48.9402 45.6867 49.4245 45.4486C50.0306 45.1508 50.5106 44.6866 50.7818 44.136C50.9517 43.7912 50.9848 43.5784 50.9848 42.8289C50.9848 42.0815 50.9528 41.8746 50.7912 41.5755C50.5246 41.0823 50.0921 40.6642 49.5566 40.3823C49.124 40.1544 49.0381 40.1433 47.538 40.1206C46.2083 40.1005 45.9013 40.1217 45.5087 40.2604ZM52.462 42.9184V45.7385H55.0134H57.5649V45.2013V44.6642H55.5506H53.5363V42.3813V40.0984H52.9991H52.462V42.9184ZM60.3782 40.2825C59.7709 40.5162 59.2215 41.0023 58.9309 41.5632C58.7292 41.9525 58.6919 42.1401 58.6883 42.7841C58.681 44.0663 59.1806 44.9109 60.2442 45.4149C60.831 45.6929 60.8367 45.6937 62.3545 45.6937C63.7868 45.6937 63.9026 45.6808 64.3202 45.4754C65.3816 44.953 65.9803 44.0167 65.9803 42.879C65.9803 41.6382 65.3559 40.7046 64.2491 40.2905C63.7988 40.1221 63.5564 40.0989 62.284 40.103C61.0667 40.107 60.7593 40.1359 60.3782 40.2825ZM69.0242 40.2474C68.2526 40.5165 67.7851 40.9426 67.4352 41.6957C67.2369 42.1225 67.2172 42.262 67.2516 42.9938C67.31 44.2401 67.7356 44.9097 68.8004 45.4308L69.3375 45.6937L71.5533 45.723L73.769 45.7523V44.0892V42.426H71.8442H69.9194V42.8737V43.3213H71.2623H72.6052V43.9985V44.6757L71.054 44.6475C69.5331 44.62 69.4954 44.6146 69.1309 44.3731C68.6336 44.0437 68.3611 43.5098 68.3655 42.8737C68.3694 42.3248 68.5254 41.9589 68.9043 41.6101C69.3243 41.2234 69.6358 41.1727 71.589 41.1727H73.4109V40.6355V40.0984L71.419 40.1027C69.8487 40.106 69.3417 40.1367 69.0242 40.2474ZM75.291 42.9184V45.7385H75.8729H76.4548V42.9184V40.0984H75.8729H75.291V42.9184ZM78.0662 42.9184V45.7385H80.752H83.4378V45.2013V44.6642H81.2892H79.1406V42.9184V41.1727H81.2892H83.4378V40.6355V40.0984H80.752H78.0662V42.9184ZM85.7861 40.2105C84.8372 40.5148 84.4876 41.8912 85.1466 42.7291C85.5377 43.2262 85.7343 43.2688 87.8693 43.3194C88.9526 43.345 89.8917 43.4002 89.9563 43.4419C90.1269 43.5521 90.25 43.9289 90.1914 44.162C90.1636 44.273 90.0263 44.4313 89.8865 44.514C89.6656 44.6444 89.3192 44.6642 87.2512 44.6642H84.8702V45.2063V45.7484L87.4888 45.7211C90.0923 45.6939 90.1098 45.6925 90.5057 45.4699C91.0607 45.158 91.2638 44.7743 91.2613 44.0424C91.2589 43.3314 91.09 42.9704 90.6243 42.6809C90.303 42.481 90.189 42.4687 88.2865 42.426C86.3178 42.382 86.2837 42.378 86.1155 42.1699C85.887 41.8875 85.8998 41.604 86.1517 41.3673C86.3534 41.1779 86.4207 41.1727 88.6584 41.1727H90.9579V40.6355V40.0984L88.5184 40.1075C87.0903 40.1129 85.9574 40.1556 85.7861 40.2105ZM94.2256 41.1727C94.256 41.2219 94.2987 41.2622 94.3204 41.2622C94.3422 41.2622 94.3599 41.2219 94.3599 41.1727C94.3599 41.1234 94.3172 41.0832 94.2651 41.0832C94.213 41.0832 94.1952 41.1234 94.2256 41.1727ZM48.9727 41.3741C49.871 41.8285 50.1798 42.9039 49.6645 43.7833C49.4833 44.0924 49.3008 44.259 48.9542 44.4317C48.5278 44.6442 48.3928 44.6642 47.3833 44.6642C45.8889 44.6642 45.3979 44.4501 45.0215 43.6346C44.6019 42.7254 45.0516 41.5704 45.935 41.2884C46.1027 41.2347 46.7652 41.1868 47.4072 41.1818C48.4506 41.1737 48.6167 41.1941 48.9727 41.3741ZM63.8765 41.3419C64.5228 41.6402 64.8252 42.1255 64.8292 42.871C64.8331 43.6147 64.472 44.1773 63.7869 44.4944C63.2709 44.7334 61.3537 44.7343 60.8289 44.4959C59.8527 44.0525 59.5062 42.795 60.109 41.8841C60.4975 41.2969 60.8719 41.1766 62.3098 41.1766C63.2958 41.1766 63.5843 41.2071 63.8765 41.3419ZM16.2041 42.8737V43.3213H17.9051H19.6061V42.8737V42.426H17.9051H16.2041V42.8737ZM79.8568 42.8737V43.3213H81.5577H83.2587V42.8737V42.426H81.5577H79.8568V42.8737ZM92.1594 42.9943C92.1325 43.0644 92.1231 43.2976 92.1385 43.5125L92.1665 43.9032L93.5989 43.8741C94.3867 43.8581 96.0385 43.7881 97.2695 43.7184C98.5004 43.6488 99.6184 43.5914 99.7538 43.5909C99.9355 43.5901 100 43.5454 100 43.4202C100 43.2633 99.8945 43.2465 98.59 43.1948C97.8145 43.1641 96.5958 43.1008 95.8818 43.0541C93.0897 42.8713 92.212 42.8573 92.1594 42.9943ZM6.31155 43.1097C5.96688 43.1238 4.61728 43.1783 3.31245 43.2308C0.298121 43.3521 1.06356e-06 43.3841 1.06356e-06 43.5875C1.06356e-06 43.7772 -0.0243499 43.7756 7.29633 44.0573L7.92301 44.0814V43.5894V43.0975L7.43062 43.0908C7.1598 43.087 6.65622 43.0956 6.31155 43.1097ZM93.5542 43.5003C93.5542 43.5726 93.3358 43.6794 93.188 43.6794C93.1423 43.6794 93.1528 43.6029 93.2113 43.5093C93.3106 43.3503 93.5542 43.3439 93.5542 43.5003ZM5.41629 43.6794C5.44718 43.7294 5.38022 43.7683 5.26491 43.7676C5.09857 43.7664 5.08442 43.7492 5.19248 43.6794C5.35909 43.5718 5.34978 43.5718 5.41629 43.6794ZM4.72059 43.7335C4.69087 43.7632 4.61361 43.7664 4.54906 43.7405C4.47762 43.712 4.49884 43.6908 4.60313 43.6865C4.69749 43.6826 4.75031 43.7038 4.72059 43.7335Z" fill="white"/>
</svg>
